<svg width="1200" height="630" viewBox="0 0 1200 630" xmlns="http://www.w3.org/2000/svg">
  <defs>
    <linearGradient id="bg" x1="0" y1="0" x2="1" y2="1">
      <stop offset="0%" stop-color="#1565c0"/>
      <stop offset="100%" stop-color="#0d47a1"/>
    </linearGradient>
  </defs>
  <rect width="1200" height="630" fill="url(#bg)"/>

  <!-- Decorative calculator keys (top-right) -->
  <rect x="880" y="70" width="250" height="280" rx="20" fill="rgba(255,255,255,0.06)"/>
  <rect x="904" y="94" width="52" height="44" rx="7" fill="rgba(255,255,255,0.13)"/>
  <rect x="964" y="94" width="52" height="44" rx="7" fill="rgba(255,255,255,0.13)"/>
  <rect x="1024" y="94" width="52" height="44" rx="7" fill="rgba(255,255,255,0.13)"/>
  <rect x="1084" y="94" width="52" height="44" rx="7" fill="rgba(255,255,255,0.22)"/>
  <rect x="904" y="148" width="52" height="44" rx="7" fill="rgba(255,255,255,0.13)"/>
  <rect x="964" y="148" width="52" height="44" rx="7" fill="rgba(255,255,255,0.13)"/>
  <rect x="1024" y="148" width="52" height="44" rx="7" fill="rgba(255,255,255,0.13)"/>
  <rect x="1084" y="148" width="52" height="44" rx="7" fill="rgba(255,255,255,0.22)"/>
  <rect x="904" y="202" width="52" height="44" rx="7" fill="rgba(255,255,255,0.13)"/>
  <rect x="964" y="202" width="52" height="44" rx="7" fill="rgba(255,255,255,0.13)"/>
  <rect x="1024" y="202" width="52" height="44" rx="7" fill="rgba(255,255,255,0.13)"/>
  <rect x="1084" y="202" width="52" height="98" rx="7" fill="rgba(255,255,255,0.32)"/>
  <rect x="904" y="256" width="112" height="44" rx="7" fill="rgba(255,255,255,0.13)"/>
  <rect x="1024" y="256" width="52" height="44" rx="7" fill="rgba(255,255,255,0.13)"/>

  <!-- Brand name -->
  <text x="80" y="260" font-family="-apple-system, BlinkMacSystemFont, 'Segoe UI', Helvetica, Arial, sans-serif" font-size="96" font-weight="700" fill="white" letter-spacing="-3">Money</text>
  <text x="574" y="260" font-family="-apple-system, BlinkMacSystemFont, 'Segoe UI', Helvetica, Arial, sans-serif" font-size="96" font-weight="700" fill="#90caf9" letter-spacing="-3">Cal</text>

  <!-- Divider -->
  <rect x="80" y="285" width="520" height="3" rx="2" fill="rgba(255,255,255,0.2)"/>

  <!-- Tagline -->
  <text x="80" y="340" font-family="-apple-system, BlinkMacSystemFont, 'Segoe UI', Helvetica, Arial, sans-serif" font-size="28" fill="rgba(255,255,255,0.88)">Free finance calculators. No signup required.</text>

  <!-- Tool pills -->
  <text x="80" y="420" font-family="-apple-system, BlinkMacSystemFont, 'Segoe UI', Helvetica, Arial, sans-serif" font-size="20" fill="rgba(255,255,255,0.58)">📈 Compound Interest  ·  💳 Debt Payoff  ·  🔥 FIRE  ·  🏠 Mortgage  ·  📊 Net Worth</text>

  <!-- URL badge -->
  <rect x="80" y="488" width="310" height="52" rx="8" fill="rgba(255,255,255,0.10)"/>
  <text x="104" y="521" font-family="-apple-system, BlinkMacSystemFont, 'Segoe UI', Helvetica, Arial, sans-serif" font-size="21" fill="rgba(255,255,255,0.80)">🔒 moneycal.co</text>
</svg>
